<?xml version="1.0" encoding="UTF-8"?>
<svg id="Layer_2" data-name="Layer 2" xmlns="http://www.w3.org/2000/svg" xmlns:xlink="http://www.w3.org/1999/xlink" viewBox="0 0 563.52 152.4">
  <defs>
    
    
  </defs>
  <g id="Layer_1-2" data-name="Layer 1">
    <path fill="#00587d" d="m488.53,1.9l-53.72,31.02c-4.38,2.53-7.09,7.21-7.09,12.27v62.02c0,5.06,2.7,9.74,7.09,12.27l53.72,31.02c4.39,2.53,9.79,2.53,14.17,0l53.73-31.02c4.39-2.53,7.09-7.21,7.09-12.27v-62.02c0-5.06-2.7-9.74-7.09-12.27L502.71,1.9c-4.39-2.53-9.79-2.53-14.17,0Zm54.08,84.91h-36.62v36.43h-20.73v-36.43h-36.63v-20.73h36.63V29.17h20.73v36.91h36.62v20.73Zm-121.67,20.41v-62.02c0-5.06-2.7-9.74-7.09-12.27L360.14,1.9c-4.39-2.53-9.79-2.53-14.17,0l-53.73,31.02c-4.39,2.53-7.09,7.21-7.09,12.27v62.02c0,5.06,2.7,9.74,7.09,12.27l53.73,31.02c4.39,2.53,9.79,2.53,14.17,0l53.72-31.02c4.38-2.53,7.09-7.21,7.09-12.27Zm-103.42-61.45v-16.6h71.05v16.6h-25.55v77.47h-19.95V45.77h-25.55Zm-39.16,61.45v-62.02c0-5.06-2.7-9.74-7.09-12.27L217.56,1.9c-4.39-2.53-9.79-2.53-14.17,0l-53.73,31.02c-4.39,2.53-7.09,7.21-7.09,12.27v62.02c0,5.06,2.7,9.74,7.09,12.27l53.73,31.02c4.39,2.53,9.79,2.53,14.17,0l53.72-31.02c4.38-2.53,7.09-7.21,7.09-12.27Zm-98.37-6.23c-2.93-7.03-4.39-15.24-4.39-24.63,0-6.92.94-13.27,2.82-19.03,1.88-5.76,4.63-10.74,8.26-14.96,3.63-4.21,8.12-7.47,13.46-9.76,5.34-2.3,11.48-3.44,18.4-3.44,4.55,0,9.11.57,13.68,1.72,4.57,1.15,8.94,2.72,13.11,4.72l-6.26,15.78c-3.42-1.63-6.86-3.05-10.32-4.26-3.47-1.21-6.87-1.81-10.21-1.81-3.71,0-7,.72-9.86,2.16-2.85,1.43-5.25,3.51-7.19,6.22-1.94,2.72-3.42,5.99-4.42,9.83-1,3.84-1.5,8.16-1.5,12.96,0,6.47.8,11.98,2.41,16.55,1.61,4.57,4.1,8.06,7.48,10.46,3.38,2.4,7.74,3.6,13.08,3.6,3.72,0,7.44-.42,11.18-1.26,3.73-.83,7.79-2.02,12.17-3.56v16.27c-4.05,1.67-8.03,2.87-11.95,3.6-3.93.73-8.33,1.09-13.21,1.09-9.43,0-17.18-1.94-23.26-5.85-6.07-3.9-10.56-9.36-13.48-16.4Zm-44.2,6.23v-62.02c0-5.06-2.7-9.74-7.09-12.27L74.98,1.9c-4.39-2.53-9.79-2.53-14.17,0L7.09,32.92c-4.38,2.53-7.09,7.21-7.09,12.27v62.02c0,5.06,2.7,9.74,7.09,12.27l53.72,31.02c4.39,2.53,9.79,2.53,14.17,0l53.73-31.02c4.39-2.53,7.09-7.21,7.09-12.27Zm-91.77,16.02h-21.41L55.68,29.17h24.29l33.2,94.07h-21.41l-6.79-22.3h-34.16l-6.79,22.3Zm29.41-60.75l6.8,21.79h-24.42l6.73-21.79c.3-.98.79-2.63,1.47-4.93.69-2.31,1.4-4.76,2.15-7.34.75-2.59,1.34-4.75,1.76-6.51.43,1.76,1,3.82,1.7,6.19.71,2.37,1.41,4.7,2.12,6.98.7,2.29,1.27,4.16,1.69,5.61Z"></path>
  </g>
</svg>